<?xml version="1.0" encoding="UTF-8"?>
<!DOCTYPE svg PUBLIC "-//W3C//DTD SVG 1.1//EN" "http://www.w3.org/Graphics/SVG/1.1/DTD/svg11.dtd">
<!-- Creator: CorelDRAW 2018 (64-Bit) -->
<svg xmlns="http://www.w3.org/2000/svg" xml:space="preserve" width="2302px" height="654px" version="1.1" style="shape-rendering:geometricPrecision; text-rendering:geometricPrecision; image-rendering:optimizeQuality; fill-rule:evenodd; clip-rule:evenodd"
viewBox="0 0 2302 653.62"
 xmlns:xlink="http://www.w3.org/1999/xlink">
 <defs>
  <style type="text/css">
   <![CDATA[
    .fil3 {fill:#244A34}
    .fil2 {fill:#D9E021}
    .fil0 {fill:#244A34;fill-rule:nonzero}
    .fil1 {fill:#D9E021;fill-rule:nonzero}
   ]]>
  </style>
 </defs>
 <g id="Layer_x0020_1">
  <metadata id="CorelCorpID_0Corel-Layer"/>
  <g id="_1815609889520">
   <path class="fil0" d="M144.42 319.53c21.32,0 43.94,4.79 62.65,16.97l21.75 -55.68c-22.62,-13.92 -54.38,-21.32 -89.18,-21.32 -87.87,0 -139.64,45.68 -139.64,123.98l0 185.75 70.47 0 0 -110.93 125.28 0 0 -56.55 -125.28 0 0 -18.71c0,-42.19 25.23,-63.51 73.95,-63.51zm259.69 15.66l0 24.8c-16.96,-19.14 -41.32,-28.28 -70.03,-28.28 -66.13,0 -117.02,46.98 -117.02,120.5 0,73.52 50.89,120.5 117.02,120.5 31.32,0 56.11,-10.01 73.08,-30.45l0 26.97 64.81 0 0 -234.04 -67.86 0zm-58.29 181.84c-33.93,0 -60.03,-24.36 -60.03,-64.82 0,-40.46 26.1,-64.82 60.03,-64.82 33.5,0 59.6,24.36 59.6,64.82 0,40.46 -26.1,64.82 -59.6,64.82zm235.76 -150.95l0 -30.89 -64.81 0 0 234.04 67.86 0 0 -110.49c0,-44.81 24.79,-65.26 62.21,-65.26 5.22,0 9.57,0.44 15.22,0.87l0 -62.64c-36.1,0 -63.95,11.75 -80.48,34.37zm402.81 -34.37c-35.24,0 -65.69,14.36 -84.39,38.28 -16.53,-25.66 -44.37,-38.28 -77,-38.28 -30.01,0 -56.11,10.44 -73.51,30.45l0 -26.97 -64.82 0 0 234.04 67.86 0 0 -117.45c0,-41.76 21.32,-61.34 51.33,-61.34 28.28,0 44.37,17.4 44.37,55.25l0 123.54 67.86 0 0 -117.45c0,-41.76 21.32,-61.34 51.77,-61.34 27.41,0 44.37,17.4 44.37,55.25l0 123.54 67.86 0 0 -133.99c0,-71.34 -40.02,-103.53 -95.7,-103.53z"/>
   <path class="fil1" d="M1273.66 573.58c50.03,0 92.66,-17.84 120.93,-50.9l-36.54 -34.8c-22.18,24.36 -49.59,36.11 -81.35,36.11 -63.07,0 -108.75,-44.37 -108.75,-107.02 0,-62.64 45.68,-107.01 108.75,-107.01 31.76,0 59.17,11.75 81.35,35.67l36.54 -34.36c-28.27,-33.06 -70.9,-50.9 -120.5,-50.9 -93.52,0 -163.12,65.69 -163.12,156.6 0,90.92 69.6,156.61 162.69,156.61zm248.38 -1.31c72.22,0 123.98,-49.59 123.98,-119.19 0,-69.6 -51.76,-118.76 -123.98,-118.76 -71.34,0 -123.54,49.16 -123.54,118.76 0,69.6 52.2,119.19 123.54,119.19zm0 -46.54c-39.15,0 -68.73,-28.28 -68.73,-72.65 0,-44.37 29.58,-72.65 68.73,-72.65 39.59,0 69.17,28.28 69.17,72.65 0,44.37 -29.58,72.65 -69.17,72.65zm210.54 -154.87l0 -33.93 -51.76 0 0 232.3 54.37 0 0 -112.67c0,-47.42 26.1,-71.78 67.43,-71.78 3.92,0 7.83,0.44 12.61,1.31l0 -51.77c-38.71,0 -66.99,12.18 -82.65,36.54zm240.12 -36.54c-31.75,0 -58.72,10.88 -76.99,33.06l0 -30.45 -51.77 0 0 316.69 54.38 0 0 -112.67c18.7,21.32 44.8,31.32 74.38,31.32 67.86,0 117.89,-46.98 117.89,-119.19 0,-71.78 -50.03,-118.76 -117.89,-118.76zm-6.09 191.41c-39.15,0 -69.16,-28.28 -69.16,-72.65 0,-44.37 30.01,-72.65 69.16,-72.65 39.15,0 68.74,28.28 68.74,72.65 0,44.37 -29.59,72.65 -68.74,72.65zm230.12 46.54c65.25,0 105.27,-28.27 105.27,-71.77 0,-90.92 -143.55,-49.23 -143.55,-96.14 0,-15.23 15.66,-26.1 48.72,-26.1 22.18,0 44.37,4.35 66.55,17.4l20.88 -41.33c-20.88,-12.61 -56.11,-20.01 -87,-20.01 -62.64,0 -102.22,28.71 -102.22,72.65 0,92.66 143.55,50.82 143.55,95.27 0,16.09 -14.36,25.66 -48.72,25.66 -29.15,0 -60.47,-9.57 -80.91,-23.05l-20.88 41.32c20.88,14.79 59.59,26.1 98.31,26.1z"/>
  </g>
  <g id="_1815609889232">
   <path class="fil2" d="M707.69 179.61c14.42,-22.85 49.59,-24.85 79.41,-31.55 -17.53,8.26 -38.67,27.1 -54.03,46.47 -3.74,7.91 -6.51,17.44 -8.41,27.72 26.43,0.05 176.25,-15.19 164.64,-160.14 -55.24,69.19 -150.71,29.97 -185.44,83.11 -10.45,15.99 -19.14,36.83 -12.32,57.06 5.02,-8.85 10.6,-16.44 16.15,-22.67z"/>
   <path class="fil2" d="M568.05 64.48c12.52,5.37 60.04,21.15 85.51,65.63 1.19,4.08 2.03,8.42 2.48,12.5 -55.79,-30.78 -129.75,-6.9 -167.65,-78.61 -9.04,-19.15 -17.22,-47.97 -15.75,-64 60.13,52.73 219.04,-30.96 203.95,126.98 -14.45,-40.07 -67.25,-71.94 -108.54,-62.5z"/>
   <path class="fil2" d="M820.55 252.46c-8.18,1.77 -38.66,5.7 -59.22,29.52 -1.2,2.32 -2.21,4.84 -2.96,7.24 37.22,-12 78.99,11.05 110.23,-27.71 7.69,-10.48 16,-26.89 16.99,-36.72 -42.41,24.72 -128.35,-44.33 -137.77,52.61 13.4,-22.46 48.95,-35.47 72.73,-24.94z"/>
   <path class="fil2" d="M569.02 218.96c8.15,-1.89 37.4,-11.32 66.15,1.47 2.07,1.59 4.05,3.43 5.76,5.29 -38.79,5 -66.75,43.65 -111.53,21.89 -11.42,-6.2 -25.93,-17.5 -31.02,-25.97 48.91,4.29 97.23,-94.8 147.06,-11.12 -21.7,-14.6 -59.4,-11.22 -76.42,8.44z"/>
   <path class="fil3" d="M684.67 325.59c12.81,-27.1 -6.31,-45.36 -2.5,-68.31 -19.36,2.38 -27.22,-8.3 -36.51,-28.96 -3,-6.65 -18.45,-19.05 -25.22,-16.32 -0.24,0.1 -0.47,0.13 -0.62,-0.01 -3,-2.86 21.05,-7.16 33.17,12.54 9.43,15.32 13.76,24.73 32.1,19.17 1.48,-5.55 3.23,-10.84 5.21,-15.85 -37.37,-15.83 -38.32,-38.01 -29.83,-77.93 2.47,-11.62 -5.89,-42.79 -17.43,-45.73 -0.41,-0.1 -0.75,-0.28 -0.8,-0.6 -1.2,-6.65 34.55,10.86 31.51,48.42 -2.39,29.61 -5.82,46.19 24.98,56.52 0.28,0.04 0.55,0.09 0.82,0.14 20.15,-34.81 48.76,-49.64 48.64,-38.14 -0.01,0.99 -0.91,1.7 -2.1,2.22 -33.01,14.61 -35.14,104.62 -21.88,138.12 1.72,4.36 3.39,8.64 5,12.87 16.21,-3.38 16.22,-13.57 18.12,-30.54 2.57,-22.98 26.17,-29.34 24.67,-25.48 -0.07,0.19 -0.3,0.26 -0.56,0.28 -7.29,0.41 -15.98,18.21 -15.86,25.51 0.25,14.32 -0.68,24.78 -6.08,32.08l-64.83 0z"/>
  </g>
 </g>
</svg>
